<?xml version="1.0" standalone="no"?>
<!DOCTYPE svg PUBLIC "-//W3C//DTD SVG 20010904//EN"
 "http://www.w3.org/TR/2001/REC-SVG-20010904/DTD/svg10.dtd">
<svg version="1.0" xmlns="http://www.w3.org/2000/svg"
 width="3508.000000pt" height="2481.000000pt" viewBox="0 0 3508.000000 2481.000000"
 preserveAspectRatio="xMidYMid meet">

<g transform="translate(0.000000,2481.000000) scale(0.100000,-0.100000)"
fill="#000000" stroke="none">
<path d="M31924 23901 c-52 -32 -58 -67 -50 -306 3 -115 11 -275 16 -355 27
-418 22 -1152 -10 -1615 -69 -975 -269 -2008 -502 -2595 -274 -689 -700 -1207
-1308 -1590 -372 -234 -1108 -526 -2321 -920 -1392 -452 -2382 -736 -4229
-1210 -691 -177 -995 -281 -1377 -469 -400 -197 -683 -398 -978 -695 -410
-412 -720 -905 -939 -1494 -53 -141 -191 -595 -210 -691 -35 -171 -28 -266 24
-313 17 -16 41 -28 53 -28 82 0 245 176 772 836 470 588 665 805 910 1015 514
439 1175 755 2020 965 169 42 1418 296 2060 418 160 31 522 96 805 146 1173
207 1667 321 2407 559 1875 604 2757 1123 3413 2012 469 635 732 1341 826
2214 21 195 29 672 15 870 -24 327 -62 591 -127 875 -106 458 -236 810 -486
1310 -115 232 -473 888 -537 985 -52 79 -178 118 -247 76z"/>
<path d="M30769 23715 c-274 -55 -834 -288 -1634 -679 -1684 -825 -3122 -1821
-4298 -2976 -1023 -1004 -1949 -2252 -2305 -3105 -207 -495 -264 -888 -136
-941 90 -38 189 50 502 449 149 188 434 517 986 1137 1021 1145 1459 1575
2326 2284 408 333 1358 1087 1540 1222 898 666 2877 2021 3462 2373 122 73
160 110 156 152 -4 42 -40 64 -134 84 -87 18 -372 18 -465 0z"/>
<path d="M3942 20049 c-514 -49 -999 -301 -1337 -692 -307 -355 -476 -778
-501 -1252 -15 -295 57 -663 185 -939 121 -262 316 -518 529 -697 492 -411
1108 -569 1729 -444 823 167 1462 827 1602 1655 93 548 -43 1112 -377 1559
-72 96 -254 285 -352 364 -409 330 -959 496 -1478 446z"/>
<path d="M11475 19519 c-448 -5 -612 -10 -720 -23 -576 -70 -1160 -230 -1537
-423 -327 -167 -658 -448 -990 -843 -366 -434 -936 -1334 -1086 -1715 -165
-417 -243 -835 -273 -1460 -7 -150 -8 -538 -5 -1110 3 -484 8 -3624 11 -6978
l6 -6098 24 -9 c28 -11 532 -15 1775 -15 1170 0 1556 4 1588 16 l25 9 -9 3758
c-10 4293 -8 9269 5 10167 8 583 9 613 30 690 42 151 127 293 242 400 73 69
134 109 243 161 158 74 162 75 706 85 581 10 3090 33 3310 30 561 -8 899 -163
1180 -542 66 -89 94 -149 125 -273 68 -269 77 -555 72 -2311 -4 -1368 -4
-1392 -25 -1500 -88 -458 -357 -728 -817 -824 -328 -67 -448 -71 -2288 -71
l-1627 0 -10 -26 c-16 -41 -13 -3256 3 -3276 11 -14 102 -16 822 -22 446 -4
1235 -11 1755 -16 947 -9 1639 -2 1825 20 422 49 760 162 1143 383 651 376
1269 921 1746 1541 200 259 449 653 584 923 121 241 247 582 297 808 60 268
57 165 51 2220 -4 1034 -11 1975 -17 2090 -37 793 -140 1253 -381 1700 -307
570 -686 1115 -1002 1442 -635 659 -1308 998 -2086 1052 -596 42 -2898 62
-4695 40z"/>
<path d="M2602 15623 c-13 -3 -27 -16 -33 -29 -5 -16 -9 -2408 -9 -6377 0
-5513 2 -6360 15 -6413 29 -126 99 -237 281 -450 347 -406 804 -753 1309 -995
353 -168 890 -356 1202 -419 255 -51 410 -31 444 57 5 15 3 697 -6 1771 -8
961 -29 3410 -45 5442 -59 7236 -60 7393 -72 7407 -8 11 -289 13 -1537 12
-839 -1 -1536 -4 -1549 -6z"/>
<path d="M11505 14986 c-41 -18 -83 -69 -90 -109 -3 -18 -4 -682 -3 -1477 l3
-1445 23 -44 c13 -24 45 -66 70 -93 84 -90 -102 -82 1782 -79 1875 3 1715 -4
1754 74 17 36 19 93 28 935 5 493 8 1165 6 1493 l-3 595 -30 59 c-23 46 -40
64 -74 82 l-44 23 -1696 0 c-1388 -1 -1702 -3 -1726 -14z"/>
<path d="M24965 13184 c-1364 -31 -2184 -103 -2555 -224 -271 -88 -703 -360
-1110 -699 -338 -280 -750 -692 -1034 -1031 -481 -574 -820 -1217 -1036 -1961
-53 -181 -66 -247 -84 -419 -43 -404 -59 -918 -58 -1920 0 -1121 18 -1779 57
-2128 75 -660 231 -1175 486 -1604 123 -207 265 -394 550 -723 90 -105 214
-249 274 -320 333 -393 719 -702 1155 -924 477 -243 926 -355 1570 -391 239
-13 4714 -13 4964 0 354 19 579 59 801 145 387 149 587 261 940 527 638 481
1092 968 1384 1485 178 315 330 763 319 938 -5 82 -25 111 -103 150 l-60 30
-2505 -5 c-4493 -9 -5022 -8 -5199 13 -517 60 -861 196 -1101 437 -180 179
-286 389 -345 685 -49 246 -50 282 -47 1470 5 1622 13 1837 77 2083 113 428
435 778 881 958 237 96 450 121 1224 144 669 19 1150 23 4145 29 3063 6 3070
6 3105 26 44 26 72 79 67 125 -5 42 -280 606 -421 864 -345 632 -653 1064
-1020 1432 -208 207 -299 284 -478 404 -261 174 -511 273 -789 314 -172 25
-710 52 -1559 77 -333 9 -2210 19 -2495 13z"/>
<path d="M23752 8852 c-130 -26 -281 -118 -343 -209 -32 -45 -33 -53 -40 -168
-34 -586 -37 -3017 -4 -3140 40 -149 161 -266 321 -311 54 -15 381 -17 4037
-21 3278 -5 3986 -3 4025 8 60 17 133 87 149 144 17 61 22 3454 5 3513 -7 23
-27 58 -43 77 -38 43 -135 92 -209 105 -36 6 -1433 11 -3944 12 -3180 3 -3901
1 -3954 -10z"/>
<path d="M11460 6210 c-19 -19 -20 -33 -20 -357 0 -613 -19 -3827 -26 -4414
l-6 -577 21 -21 c20 -20 31 -21 234 -21 471 0 963 44 1289 114 299 65 695 225
986 399 462 277 1008 868 1106 1196 14 49 16 228 16 1856 0 1540 -2 1804 -14
1821 -14 19 -45 19 -1790 22 -1767 2 -1776 2 -1796 -18z"/>
</g>
</svg>
